<svg width="16" height="16" viewBox="0 0 16 16" fill="none" xmlns="http://www.w3.org/2000/svg">
<path fill-rule="evenodd" clip-rule="evenodd" d="M13.6 2.3C12.1 0.8 10.1 0 8 0C3.6 0 0 3.6 0 8C0 9.4 0.400006 10.8 1.10001 12L0 16L4.20001 14.9C5.40001 15.5 6.7 15.9 8 15.9C12.4 15.9 16 12.3 16 7.9C16 5.8 15.1 3.8 13.6 2.3ZM8 14.6C6.8 14.6 5.60001 14.3 4.60001 13.7L4.39999 13.6L1.89999 14.3L2.60001 11.9L2.39999 11.6C1.69999 10.5 1.39999 9.3 1.39999 8.1C1.39999 4.5 4.4 1.5 8 1.5C9.8 1.5 11.4 2.2 12.7 3.4C14 4.7 14.6 6.3 14.6 8.1C14.6 11.6 11.7 14.6 8 14.6ZM11.6 9.6C11.4 9.5 10.4 9 10.2 9C10 8.9 9.89999 8.9 9.79999 9.1C9.69999 9.3 9.30001 9.7 9.20001 9.9C9.10001 10 8.99999 10 8.79999 10C8.59999 9.9 8.00001 9.7 7.20001 9C6.60001 8.5 6.20001 7.8 6.10001 7.6C6.00001 7.4 6.10001 7.3 6.20001 7.2C6.30001 7.1 6.4 7 6.5 6.9C6.6 6.8 6.60001 6.7 6.70001 6.6C6.80001 6.5 6.70001 6.4 6.70001 6.3C6.70001 6.2 6.30001 5.2 6.10001 4.8C6.00001 4.5 5.80001 4.5 5.70001 4.5C5.60001 4.5 5.49999 4.5 5.29999 4.5C5.19999 4.5 4.99999 4.5 4.79999 4.7C4.59999 4.9 4.10001 5.4 4.10001 6.4C4.10001 7.4 4.79999 8.3 4.89999 8.5C4.99999 8.6 6.29999 10.7 8.29999 11.5C9.99999 12.2 10.3 12 10.7 12C11.1 12 11.9 11.5 12 11.1C12.2 10.6 12.2 10.2 12.1 10.2C12 9.7 11.8 9.7 11.6 9.6Z" fill="white"/>
</svg>
